<?xml version="1.0" standalone="no"?>
<!DOCTYPE svg PUBLIC "-//W3C//DTD SVG 20010904//EN"
 "http://www.w3.org/TR/2001/REC-SVG-20010904/DTD/svg10.dtd">
<svg version="1.0" xmlns="http://www.w3.org/2000/svg"
 width="307.000000pt" height="307.000000pt" viewBox="0 0 307.000000 307.000000"
 preserveAspectRatio="xMidYMid meet">
<metadata>
Created by potrace 1.11, written by Peter Selinger 2001-2013
</metadata>
<g transform="translate(0.000000,307.000000) scale(0.100000,-0.100000)"
fill="#000000" stroke="none">
<path d="M1445 3058 c-67 -38 -286 -264 -389 -403 -228 -305 -230 -491 -6
-542 42 -10 77 -13 217 -17 29 -1 54 -4 57 -7 7 -6 -85 -62 -136 -84 -36 -14
-38 -14 -38 3 0 31 -32 50 -118 71 -166 40 -217 67 -260 140 -25 43 -27 54
-26 156 1 121 14 174 93 377 39 100 60 178 48 178 -10 0 -64 -106 -115 -225
-134 -317 -182 -609 -121 -732 32 -63 65 -85 135 -91 69 -6 134 8 249 53 49
19 91 33 93 30 7 -7 -43 -76 -87 -119 -35 -35 -39 -36 -44 -17 -5 20 -15 23
-72 24 -11 0 -53 -5 -94 -12 -110 -20 -201 -10 -252 24 -102 72 -142 212 -154
544 -3 85 -7 157 -10 159 -23 23 -34 -81 -30 -298 9 -530 142 -789 355 -693
50 22 102 63 199 156 l64 62 -6 -35 c-4 -19 -17 -65 -29 -102 -19 -61 -23 -66
-41 -56 -29 15 -68 4 -137 -41 -103 -67 -150 -86 -215 -88 -124 -3 -224 87
-334 303 -22 45 -41 84 -41 87 0 17 -93 197 -101 197 -25 0 44 -194 136 -385
144 -295 298 -467 419 -467 103 0 160 66 269 312 19 45 20 45 27 18 5 -16 11
-62 15 -104 6 -68 5 -76 -9 -71 -32 12 -65 -13 -125 -96 -104 -145 -162 -183
-266 -174 -111 8 -213 71 -401 247 -60 56 -119 109 -132 118 -42 27 -35 3 14
-55 262 -306 610 -544 763 -520 111 18 158 115 163 339 2 60 5 108 8 108 8 0
57 -82 79 -132 l20 -48 -22 0 c-31 0 -43 -23 -72 -140 -29 -117 -46 -158 -86
-199 -49 -52 -85 -65 -184 -68 -100 -2 -166 12 -331 73 -194 70 -234 83 -239
74 -10 -16 131 -86 316 -155 286 -108 525 -139 637 -83 113 56 123 158 37 379
-19 50 -35 95 -35 101 0 12 79 -45 121 -88 31 -32 32 -35 14 -48 -22 -16 -23
-64 -2 -196 25 -162 -9 -240 -135 -305 -87 -46 -195 -63 -430 -69 -81 -3 -155
-9 -165 -14 -31 -18 69 -27 282 -26 455 2 728 103 728 269 0 78 -41 144 -175
283 -70 72 -65 75 59 36 77 -24 82 -28 72 -46 -16 -30 -4 -71 39 -136 69 -104
87 -150 87 -222 -1 -98 -50 -172 -166 -251 -52 -35 -209 -119 -224 -119 -15 0
-195 -93 -195 -101 0 -14 15 -11 97 16 252 85 527 234 650 353 68 67 103 128
105 184 2 105 -69 165 -318 274 l-39 16 26 8 c15 4 60 11 101 14 74 7 75 7 73
-16 -3 -38 3 -45 99 -117 138 -103 176 -156 176 -244 0 -116 -72 -237 -259
-432 -150 -158 -166 -210 -26 -86 128 114 291 298 371 421 144 218 159 355 48
428 -54 36 -133 52 -276 55 -60 1 -108 3 -108 4 0 2 19 15 42 29 51 32 149 77
146 66 -1 -4 1 -17 5 -28 8 -22 57 -42 157 -63 119 -26 177 -61 218 -131 24
-41 27 -55 27 -145 0 -116 -13 -167 -90 -377 -79 -211 -75 -251 8 -83 158 320
239 674 188 824 -24 67 -56 100 -116 116 -63 16 -130 4 -263 -45 -59 -21 -108
-37 -111 -35 -6 7 45 77 84 115 31 30 36 32 47 18 18 -23 69 -27 147 -11 191
36 291 1 355 -125 46 -91 61 -186 71 -457 5 -130 17 -174 32 -119 15 55 8 441
-11 559 -56 357 -171 489 -349 401 -55 -27 -71 -40 -181 -145 l-68 -66 6 35
c9 53 49 170 57 170 4 0 11 -5 14 -10 13 -22 61 -8 134 38 103 65 143 83 206
89 46 5 63 1 109 -21 91 -45 187 -168 260 -336 83 -189 126 -264 126 -219 0
50 -125 348 -205 490 -160 283 -309 399 -432 336 -61 -32 -139 -153 -205 -317
l-11 -25 -8 30 c-5 17 -11 63 -14 103 -4 69 -3 73 15 67 31 -10 57 11 116 95
64 91 130 154 181 171 50 16 138 6 204 -24 76 -36 156 -96 284 -217 60 -56
120 -109 133 -118 73 -48 -6 58 -148 197 -109 107 -222 200 -323 266 -239 155
-381 149 -446 -20 -13 -33 -26 -166 -26 -257 0 -33 -4 -57 -10 -55 -5 2 -29
41 -53 88 -44 83 -44 84 -21 87 33 5 46 27 64 107 38 169 70 230 144 273 40
24 58 27 138 28 95 2 172 -14 302 -61 36 -13 103 -38 149 -55 145 -53 162 -37
30 28 -337 165 -696 246 -842 191 -129 -48 -149 -139 -76 -345 61 -174 60
-162 8 -125 -67 48 -126 111 -105 111 34 0 39 50 17 163 -13 61 -13 163 -1
205 36 124 204 196 475 202 149 3 214 7 244 15 l27 7 -25 10 c-32 13 -360 18
-460 7 -156 -17 -177 -21 -267 -44 -239 -63 -320 -162 -254 -310 22 -48 60
-97 149 -189 l67 -69 -35 7 c-61 11 -170 48 -170 57 0 5 5 9 10 9 6 0 10 14
10 32 0 20 -17 58 -51 111 -90 142 -108 220 -70 303 44 96 141 172 340 266 69
33 150 71 179 85 59 28 70 48 20 38 -64 -14 -225 -78 -353 -140 -297 -145
-468 -298 -468 -420 0 -53 23 -95 75 -139 37 -32 168 -103 253 -137 l30 -12
-29 -8 c-17 -5 -65 -11 -109 -14 -77 -6 -78 -6 -67 14 16 32 0 52 -94 120
-144 104 -182 163 -173 266 8 107 83 230 242 397 44 46 93 98 109 115 32 35
33 58 1 41z"/>
</g>
</svg>
