<?xml version="1.0" standalone="no"?>
<!DOCTYPE svg PUBLIC "-//W3C//DTD SVG 20010904//EN"
 "http://www.w3.org/TR/2001/REC-SVG-20010904/DTD/svg10.dtd">
<svg version="1.0" xmlns="http://www.w3.org/2000/svg"
 width="256.000000pt" height="256.000000pt" viewBox="0 0 256.000000 256.000000"
 preserveAspectRatio="xMidYMid meet">
<metadata>
Created by potrace 1.14, written by Peter Selinger 2001-2017
</metadata>
<g transform="translate(0.000000,256.000000) scale(0.100000,-0.100000)"
fill="#000000" stroke="none">
<path d="M1133 2492 c-197 -174 -374 -420 -398 -554 -20 -110 75 -186 235
-188 30 -1 73 -4 94 -8 l40 -7 -61 -33 c-68 -36 -83 -39 -83 -17 0 20 -43 40
-115 55 -84 17 -151 48 -180 82 -68 80 -59 223 28 449 51 131 61 169 48 169
-30 0 -142 -269 -190 -454 -53 -203 -39 -352 37 -402 45 -30 139 -23 255 20
109 40 113 36 40 -45 -33 -37 -36 -38 -59 -23 -20 14 -35 14 -114 4 -265 -37
-330 41 -349 422 -9 167 -15 203 -32 177 -12 -19 -11 -380 1 -459 33 -215 82
-329 160 -368 73 -36 132 -14 260 99 44 39 80 66 80 61 0 -5 -9 -40 -20 -76
-19 -60 -23 -65 -40 -56 -23 13 -60 -1 -140 -52 -98 -62 -162 -73 -236 -39
-80 36 -146 135 -268 399 -29 62 -42 79 -53 68 -10 -9 56 -183 117 -311 72
-150 141 -254 218 -327 133 -127 227 -94 331 117 53 109 55 109 64 -3 3 -45 2
-52 -14 -52 -34 0 -50 -13 -104 -91 -85 -121 -158 -157 -261 -129 -68 19 -176
94 -282 195 -51 48 -95 85 -98 83 -8 -9 206 -198 271 -239 71 -46 144 -64 210
-55 56 9 111 55 180 151 45 64 71 83 88 66 16 -16 3 -240 -18 -289 -58 -141
-224 -105 -485 105 -86 70 -265 251 -256 260 7 7 -13 33 -25 33 -54 0 221
-276 387 -389 72 -48 174 -96 226 -106 110 -21 186 75 188 235 1 30 4 73 8 94
l7 40 33 -61 c36 -68 39 -83 17 -83 -20 0 -40 -42 -59 -131 -20 -89 -61 -161
-107 -185 -83 -42 -226 -26 -419 49 -132 51 -170 61 -170 48 0 -30 269 -142
454 -190 209 -55 360 -39 403 43 28 51 20 135 -21 249 -40 109 -36 113 45 40
37 -33 38 -36 23 -59 -14 -20 -14 -35 -4 -114 24 -174 0 -244 -102 -294 -72
-35 -136 -46 -325 -56 -161 -8 -206 -16 -167 -31 28 -11 379 -10 454 1 215 33
329 82 368 160 36 73 14 132 -99 260 -39 44 -66 80 -61 80 5 0 40 -9 76 -20
60 -19 65 -23 56 -40 -13 -23 1 -60 52 -140 118 -185 60 -300 -217 -435 -71
-34 -139 -66 -150 -69 -29 -9 -71 -44 -63 -52 11 -10 178 51 313 116 150 72
254 141 327 218 127 133 91 232 -120 332 -56 26 -87 47 -80 51 7 3 41 9 76 12
55 5 62 3 62 -13 0 -36 13 -50 91 -105 85 -60 126 -111 136 -168 15 -93 -53
-219 -202 -375 -48 -51 -85 -95 -83 -98 8 -8 197 204 236 265 57 89 76 182 51
248 -14 37 -70 94 -145 148 -64 46 -81 69 -65 89 14 17 236 3 289 -19 141 -58
105 -224 -105 -485 -70 -86 -251 -265 -260 -256 -7 7 -33 -13 -33 -25 0 -20
24 -6 98 59 88 78 229 237 291 328 48 72 96 174 106 226 21 110 -75 186 -235
188 -30 1 -73 4 -94 8 l-40 7 61 33 c68 36 83 39 83 17 0 -20 42 -40 131 -59
89 -20 161 -61 185 -107 42 -83 25 -226 -51 -424 -49 -127 -59 -165 -46 -165
30 0 142 269 190 454 53 203 39 352 -37 402 -45 30 -139 23 -255 -20 -109 -40
-113 -36 -40 45 33 37 36 38 59 23 20 -14 35 -14 113 -4 177 25 245 1 295
-102 35 -72 46 -136 56 -325 8 -161 16 -206 31 -167 11 28 10 379 -1 454 -33
215 -82 329 -160 368 -73 36 -132 14 -260 -99 -44 -39 -80 -66 -80 -61 0 5 9
40 20 76 19 60 23 65 40 56 23 -13 60 1 140 52 185 118 300 60 435 -217 34
-71 66 -139 69 -150 9 -29 44 -71 52 -63 10 11 -51 178 -116 313 -72 150 -141
254 -218 327 -133 127 -228 93 -332 -118 -52 -108 -53 -108 -64 4 -4 46 -3 52
14 52 36 0 50 13 105 91 85 121 158 157 261 129 68 -19 176 -94 282 -195 51
-48 95 -85 98 -83 8 8 -204 197 -265 236 -89 57 -182 76 -248 51 -37 -14 -94
-70 -148 -145 -46 -64 -69 -81 -89 -65 -17 14 -3 236 19 289 58 142 224 106
485 -105 86 -70 265 -251 256 -260 -7 -7 13 -33 25 -33 54 0 -221 276 -387
389 -72 48 -174 96 -226 106 -110 21 -186 -75 -188 -235 -1 -30 -4 -73 -8 -94
l-7 -40 -33 61 c-36 68 -39 83 -17 83 20 0 40 43 55 115 17 84 48 151 82 180
80 68 223 59 449 -28 131 -51 169 -61 169 -48 0 30 -269 142 -454 190 -203 53
-352 39 -402 -37 -30 -45 -23 -139 20 -255 40 -109 36 -113 -45 -40 -37 33
-38 36 -23 59 14 20 14 35 4 113 -25 177 -1 245 102 295 72 35 136 46 325 56
162 8 198 14 172 31 -19 12 -380 11 -459 -1 -215 -33 -329 -82 -368 -160 -36
-73 -14 -132 99 -260 39 -44 66 -80 61 -80 -5 0 -40 9 -76 20 -59 19 -65 23
-56 40 13 24 2 53 -56 146 -81 129 -71 221 34 315 52 46 145 98 330 183 62 29
79 42 68 53 -11 11 -191 -59 -331 -128 -275 -135 -411 -274 -375 -383 16 -51
77 -102 185 -155 109 -53 109 -55 -2 -64 -46 -3 -53 -2 -53 14 0 34 -13 50
-91 104 -121 85 -157 158 -129 261 19 68 94 176 195 282 48 51 85 95 83 98 -8
8 -197 -204 -236 -265 -57 -89 -76 -182 -51 -248 14 -37 70 -94 145 -148 63
-45 82 -71 65 -88 -16 -16 -240 -3 -289 18 -142 58 -106 224 105 485 70 86
251 265 260 256 7 -7 33 13 33 25 0 20 -24 5 -97 -59z m932 -271 c-11 -5 -83
-11 -161 -14 -207 -9 -313 -49 -363 -138 -22 -38 -23 -49 -18 -148 3 -58 9
-117 12 -131 4 -16 0 -32 -10 -45 -15 -19 -18 -17 -95 63 -122 129 -151 214
-94 282 50 59 204 114 367 129 108 11 388 12 362 2z m-1712 -317 c9 -207 49
-313 138 -363 38 -22 49 -23 148 -18 58 3 117 9 131 12 16 4 32 0 45 -10 19
-15 17 -18 -63 -95 -94 -88 -149 -120 -209 -120 -133 0 -213 242 -212 640 0
171 14 142 22 -46z m1115 -184 c18 0 39 -11 58 -31 16 -17 53 -46 82 -65 28
-19 52 -41 52 -47 0 -7 18 -42 39 -79 30 -52 41 -83 47 -135 3 -37 10 -78 14
-92 4 -17 -1 -47 -17 -89 -12 -34 -23 -75 -23 -90 0 -18 -11 -39 -31 -58 -17
-16 -46 -52 -64 -80 -19 -29 -45 -54 -57 -57 -13 -4 -49 -22 -80 -41 -44 -26
-74 -36 -125 -42 -37 -4 -78 -10 -92 -14 -17 -4 -47 1 -89 17 -34 12 -75 23
-90 23 -18 0 -39 11 -58 31 -16 17 -53 46 -81 65 -29 19 -53 41 -53 47 0 7
-18 42 -39 79 -30 52 -41 83 -47 135 -3 37 -10 78 -14 92 -4 17 1 47 17 89 12
34 23 74 23 88 0 16 18 47 48 82 27 31 56 69 65 85 10 15 23 27 30 27 7 0 42
18 79 39 52 30 83 41 135 47 37 3 78 10 92 14 17 4 47 -1 89 -17 34 -12 75
-23 90 -23z m622 -496 c89 -75 140 -300 139 -614 0 -171 -14 -142 -22 46 -8
206 -49 313 -137 363 -46 25 -152 30 -245 11 -54 -11 -95 -3 -95 19 0 17 162
160 204 181 59 29 117 27 156 -6z m-956 -475 c147 -159 156 -251 30 -325 -62
-36 -200 -72 -324 -84 -129 -12 -374 -12 -345 0 11 5 61 9 110 10 127 1 225
16 287 42 70 30 90 45 122 92 23 34 26 49 26 122 0 46 -5 105 -11 133 -10 49
-1 91 20 91 5 0 43 -37 85 -81z"/>
<path d="M1271 1581 c-10 -6 -10 -13 -3 -28 23 -42 37 -45 66 -14 15 16 24 31
19 34 -19 11 -69 16 -82 8z"/>
<path d="M1173 1568 c-30 -14 -29 -22 6 -47 38 -28 46 -69 16 -83 -34 -15 -65
15 -58 57 7 43 -10 51 -47 25 -44 -32 -36 -59 18 -60 9 0 25 -11 34 -24 15
-20 15 -26 2 -44 -13 -19 -16 -19 -43 -6 -16 8 -34 28 -40 44 -5 17 -15 30
-20 30 -12 0 -41 -52 -41 -75 0 -18 4 -18 47 -6 24 7 33 6 37 -5 3 -8 12 -14
20 -14 12 0 13 -6 5 -29 -8 -22 -15 -28 -30 -24 -10 3 -19 0 -19 -6 0 -6 9
-11 20 -11 15 0 20 -7 20 -29 0 -34 -32 -47 -75 -31 -37 14 -45 13 -45 -10 0
-24 20 -70 31 -70 4 0 17 13 28 29 28 38 69 46 83 16 15 -34 -15 -65 -57 -58
-43 7 -51 -10 -25 -47 32 -44 59 -36 60 18 0 9 11 25 24 34 20 15 26 15 44 2
19 -13 19 -16 6 -43 -8 -16 -28 -34 -44 -40 -17 -5 -30 -15 -30 -20 0 -12 52
-41 75 -41 18 0 18 4 6 47 -7 24 -6 33 5 37 8 3 14 12 14 20 0 12 6 13 29 5
22 -8 28 -15 24 -30 -3 -10 0 -19 6 -19 6 0 11 9 11 20 0 15 7 20 29 20 34 0
47 -32 31 -75 -14 -37 -13 -45 10 -45 24 0 70 20 70 31 0 4 -13 17 -29 28 -38
28 -46 69 -16 83 34 15 65 -15 58 -57 -7 -43 10 -51 47 -25 44 32 36 59 -18
60 -9 0 -25 11 -34 24 -15 20 -15 26 -2 44 13 19 16 19 43 6 16 -8 34 -28 40
-44 5 -17 15 -30 20 -30 12 0 41 52 41 75 0 18 -4 18 -47 6 -24 -7 -33 -6 -37
5 -3 8 -12 14 -20 14 -12 0 -13 6 -5 29 8 22 15 28 30 24 10 -3 19 0 19 6 0 6
-9 11 -20 11 -15 0 -20 7 -20 29 0 34 32 47 75 31 37 -14 45 -13 45 10 0 24
-20 70 -31 70 -4 0 -17 -13 -28 -29 -28 -38 -69 -46 -83 -16 -15 34 15 65 57
58 43 -7 51 10 25 47 -32 44 -59 36 -60 -18 0 -9 -11 -25 -24 -34 -20 -15 -26
-15 -44 -2 -19 13 -19 16 -6 43 8 16 28 34 44 40 17 5 30 15 30 20 0 12 -52
41 -75 41 -18 0 -18 -4 -6 -47 7 -24 6 -33 -5 -37 -8 -3 -14 -12 -14 -20 0
-12 -6 -13 -29 -5 -22 8 -28 15 -24 30 3 10 0 19 -6 19 -6 0 -11 -9 -11 -20 0
-15 -7 -20 -29 -20 -34 0 -47 32 -31 75 5 14 10 31 10 36 0 12 -39 10 -67 -3z"/>
<path d="M987 1353 c-11 -19 -16 -69 -8 -82 6 -10 13 -10 28 -3 42 23 45 37
14 66 -16 15 -31 24 -34 19z"/>
<path d="M1536 1279 l-27 -22 27 -28 c15 -16 30 -26 34 -24 11 7 20 63 14 80
-8 20 -16 19 -48 -6z"/>
<path d="M1226 1021 c-30 -31 -28 -35 19 -45 40 -8 60 5 47 31 -23 42 -37 45
-66 14z"/>
</g>
</svg>
