<?xml version="1.0" standalone="no"?>
<!DOCTYPE svg PUBLIC "-//W3C//DTD SVG 20010904//EN"
 "http://www.w3.org/TR/2001/REC-SVG-20010904/DTD/svg10.dtd">
<svg version="1.0" xmlns="http://www.w3.org/2000/svg"
 width="398.000000pt" height="398.000000pt" viewBox="0 0 398.000000 398.000000"
 preserveAspectRatio="xMidYMid meet">
<metadata>
Created by potrace 1.11, written by Peter Selinger 2001-2013
</metadata>
<g transform="translate(0.000000,398.000000) scale(0.100000,-0.100000)"
fill="#000000" stroke="none">
<path d="M1982 3738 c-17 -5 -34 -13 -37 -19 -5 -6 -11 -7 -19 0 -42 35 -259
-6 -318 -61 -17 -16 -39 -26 -56 -26 -69 2 -262 -138 -262 -191 0 -10 -9 -17
-22 -18 -49 -4 -177 -182 -181 -252 -1 -22 -10 -43 -25 -56 -28 -25 -59 -113
-74 -209 -10 -64 -9 -78 4 -98 13 -20 13 -25 2 -36 -8 -7 -15 -23 -15 -35 -1
-12 -2 -35 -3 -52 -3 -49 21 -181 39 -215 9 -17 23 -34 30 -37 10 -3 12 -10 6
-20 -26 -47 81 -252 146 -283 22 -10 33 -22 33 -36 0 -52 184 -208 245 -208
23 0 35 -6 41 -20 12 -27 73 -61 156 -86 89 -27 122 -30 153 -14 14 7 25 9 25
3 0 -53 311 -44 344 10 5 8 13 8 25 1 50 -26 301 87 301 137 0 7 10 13 23 13
66 0 240 169 240 233 0 14 8 27 21 33 50 22 129 182 131 269 1 28 9 61 17 75
38 59 44 264 9 311 -12 17 -17 30 -11 34 38 24 -33 264 -92 312 -13 10 -25 31
-27 48 -7 64 -146 228 -203 240 -15 4 -28 13 -28 20 0 43 -211 169 -273 164
-22 -2 -43 4 -60 18 -45 35 -223 67 -285 51z m32 -190 l59 -80 -36 -36 c-64
-68 -72 -103 -31 -151 l26 -31 -24 -2 c-12 -1 -41 -3 -63 -4 -60 -5 -70 2 -46
28 13 13 21 35 21 56 0 27 -10 43 -51 83 l-51 50 40 62 c22 34 49 79 59 101
15 33 19 36 28 21 5 -9 36 -53 69 -97z m264 45 c2 -23 27 -125 48 -194 3 -12
-8 -21 -40 -33 -50 -19 -96 -66 -96 -97 0 -11 5 -29 11 -41 6 -11 8 -22 6 -25
-8 -7 -137 38 -137 48 0 5 6 9 13 9 7 0 23 9 35 20 30 28 29 83 -4 140 l-26
45 33 25 c26 19 153 126 154 129 0 1 2 -11 3 -26z m-558 -89 c41 -26 77 -49
79 -50 2 -2 -4 -19 -13 -39 -39 -82 -28 -143 32 -166 l27 -11 -40 -20 c-22
-12 -54 -27 -71 -34 l-31 -13 11 46 c10 46 10 46 -27 79 -21 17 -53 35 -72 38
-19 4 -37 11 -39 15 -3 5 1 43 9 86 9 43 16 96 17 117 1 38 1 38 22 19 12 -10
55 -40 96 -67z m846 -70 c-3 -8 -9 -46 -12 -82 -4 -37 -8 -74 -10 -82 -1 -8
-3 -25 -3 -37 -1 -21 -6 -23 -51 -23 -86 0 -130 -34 -126 -97 2 -36 1 -36 -67
20 -49 41 -51 49 -16 54 38 6 58 23 67 57 9 30 7 95 -2 122 -3 7 28 21 77 35
45 12 96 28 112 35 38 17 38 17 31 -2z m-1110 -74 c53 -11 98 -20 100 -20 1 0
0 -20 -3 -44 -7 -64 12 -115 50 -131 17 -7 39 -11 49 -10 10 2 18 2 18 -1 0
-9 -93 -104 -101 -104 -5 0 -9 14 -9 30 0 61 -49 87 -146 81 -37 -3 -40 1 -49
57 -3 23 -14 74 -24 112 -16 66 -16 68 1 59 9 -5 61 -18 114 -29z m1276 -170
l59 0 -19 -27 c-11 -16 -36 -62 -57 -103 -21 -41 -39 -76 -40 -78 -2 -2 -18 3
-36 10 -19 8 -53 15 -76 17 -34 2 -47 -2 -68 -23 -14 -14 -25 -35 -25 -46 0
-12 -4 -19 -9 -15 -11 6 -57 87 -66 115 -6 18 -3 18 23 9 19 -6 37 -6 55 0 29
11 67 76 67 114 0 35 9 40 74 33 32 -3 86 -6 118 -6z m-1351 -85 c6 -25 25
-60 41 -77 26 -28 32 -30 73 -25 25 4 45 5 45 2 0 -11 -54 -125 -59 -125 -4 0
-12 13 -18 30 -20 54 -82 61 -165 19 -21 -11 -38 -16 -38 -11 0 4 -28 51 -63
103 -60 90 -62 94 -38 93 14 0 45 3 70 8 25 5 62 11 81 14 19 3 37 8 39 10 12
12 22 -1 32 -41z m1400 -190 c51 -25 99 -45 107 -45 8 0 -3 -13 -24 -28 -21
-16 -63 -51 -93 -79 l-54 -50 -51 38 c-64 49 -102 51 -144 9 l-30 -30 -7 53
c-4 28 -9 64 -10 79 l-3 27 26 -19 c13 -11 37 -20 53 -20 32 0 83 40 105 81 8
16 19 29 24 29 5 0 51 -20 101 -45z m-1447 -97 c31 -29 80 -27 114 5 21 20 22
20 23 1 2 -36 -2 -129 -7 -133 -2 -2 -14 5 -27 16 -12 11 -30 23 -40 26 -25 9
-77 -15 -111 -52 -17 -17 -33 -31 -38 -31 -4 0 -44 27 -89 60 -44 33 -85 60
-90 60 -18 0 -9 19 12 25 11 4 57 29 101 56 l80 48 26 -32 c15 -18 35 -40 46
-49z m1199 -170 c34 -30 68 -24 157 29 25 14 32 15 39 5 5 -8 41 -47 81 -88
53 -54 68 -74 54 -74 -10 0 -61 -16 -113 -36 -51 -19 -94 -34 -95 -32 -1 2
-15 24 -31 49 -43 70 -99 93 -142 57 -24 -19 -26 -1 -8 73 15 59 20 68 28 53
6 -11 19 -27 30 -36z m-1033 -74 c11 -36 20 -68 20 -70 0 -3 -12 2 -27 9 -56
29 -108 -1 -140 -79 -10 -24 -21 -44 -25 -44 -4 0 -43 10 -85 21 -89 25 -101
27 -127 28 -18 1 -16 5 10 34 17 17 52 60 79 94 l48 63 33 -21 c54 -33 92 -40
129 -25 18 8 36 24 40 35 11 36 23 23 45 -45z m970 -140 c0 -1 13 -7 28 -13
27 -11 84 -7 128 9 20 8 24 4 45 -53 12 -34 33 -83 46 -109 27 -55 28 -59 10
-52 -8 3 -60 6 -118 7 l-104 2 -6 46 c-13 91 -50 129 -114 117 -14 -3 -25 -2
-25 1 0 10 41 75 63 99 l21 22 13 -37 c7 -21 13 -39 13 -39z m-840 -74 c0 -5
-16 -9 -37 -8 -28 1 -41 -5 -60 -26 -12 -15 -24 -37 -24 -49 -3 -58 -7 -85
-12 -94 -4 -6 -44 -13 -89 -16 -46 -4 -98 -11 -115 -16 -32 -9 -33 -9 -21 12
7 12 24 63 39 112 l27 90 77 0 c69 0 79 2 96 24 10 13 19 37 19 55 l1 31 49
-53 c28 -29 50 -57 50 -62z m697 -35 c-8 -58 37 -97 125 -108 15 -1 30 -6 34
-10 13 -12 13 -229 0 -223 -10 4 -132 55 -183 76 -20 8 -21 13 -12 37 14 36
14 106 0 131 -6 11 -29 26 -51 34 l-40 13 62 43 c34 23 64 42 66 42 2 0 2 -16
-1 -35z m-573 -42 l46 -29 -34 -12 c-19 -7 -40 -19 -47 -28 -16 -19 -13 -79 5
-131 l14 -41 -76 -37 c-41 -20 -88 -45 -104 -56 l-28 -20 0 60 c0 34 -1 63 -2
66 -1 2 -5 29 -8 59 l-6 54 53 12 c70 15 103 44 105 91 1 20 -2 41 -6 47 -10
17 31 0 88 -35z m401 -53 c-8 -16 -15 -38 -15 -49 0 -26 44 -74 89 -98 18 -10
34 -21 34 -23 1 -3 -14 -48 -32 -100 -18 -52 -35 -100 -36 -106 -2 -7 -42 24
-88 68 l-84 80 34 57 c40 65 39 102 -3 139 -15 13 -24 25 -21 28 6 6 101 31
125 33 9 1 9 -6 -3 -29z m-182 -9 c6 -6 1 -13 -11 -20 -18 -10 -34 -38 -37
-66 -2 -14 30 -74 56 -107 l22 -26 -72 -81 c-39 -45 -71 -87 -71 -94 0 -6 -24
38 -54 98 -54 110 -54 110 -32 125 11 8 38 31 59 51 43 43 47 73 15 114 l-22
28 69 -6 c38 -4 73 -11 78 -16z"/>
<path d="M90 1034 c0 -369 3 -473 12 -476 7 -2 861 -4 1898 -4 l1885 1 3 473
c1 259 -1 473 -5 473 -5 1 -860 2 -1900 3 l-1893 1 0 -471z"/>
</g>
</svg>
