<?xml version="1.0" standalone="no"?>
<!DOCTYPE svg PUBLIC "-//W3C//DTD SVG 20010904//EN"
 "http://www.w3.org/TR/2001/REC-SVG-20010904/DTD/svg10.dtd">
<svg version="1.0" xmlns="http://www.w3.org/2000/svg"
 width="307.000000pt" height="307.000000pt" viewBox="0 0 307.000000 307.000000"
 preserveAspectRatio="xMidYMid meet">
<metadata>
Created by potrace 1.11, written by Peter Selinger 2001-2013
</metadata>
<g transform="translate(0.000000,307.000000) scale(0.100000,-0.100000)"
fill="#000000" stroke="none">
<path d="M1445 3058 c-48 -27 -222 -200 -321 -318 -292 -348 -318 -572 -74
-627 42 -10 77 -13 217 -17 29 -1 54 -4 57 -7 7 -6 -85 -62 -136 -84 -36 -14
-38 -14 -38 3 0 31 -32 50 -118 71 -166 40 -217 67 -260 140 -25 43 -27 54
-26 156 1 121 14 174 93 377 39 100 60 178 48 178 -10 0 -64 -106 -115 -225
-134 -317 -182 -609 -121 -732 38 -74 64 -88 167 -88 77 1 100 6 197 42 60 23
111 40 114 38 7 -7 -45 -77 -89 -120 -29 -29 -40 -35 -40 -22 0 10 -11 22 -25
27 -26 10 -40 9 -149 -10 -200 -36 -299 19 -358 197 -23 72 -36 184 -43 372
-3 85 -7 157 -10 159 -23 23 -34 -81 -30 -298 8 -450 104 -707 267 -713 66 -2
139 39 245 138 50 47 94 85 98 85 9 0 1 -34 -27 -122 -19 -61 -23 -66 -41 -56
-29 15 -68 4 -137 -41 -103 -67 -150 -86 -215 -88 -124 -3 -224 87 -334 303
-22 45 -41 84 -41 87 0 17 -93 197 -101 197 -43 0 139 -424 259 -605 69 -103
158 -198 215 -227 22 -11 59 -20 82 -20 102 0 159 67 268 312 19 45 20 45 27
18 5 -16 11 -62 15 -104 6 -68 5 -76 -9 -71 -32 12 -65 -13 -125 -96 -104
-145 -162 -183 -266 -174 -111 8 -213 71 -401 247 -60 56 -119 109 -132 118
-42 27 -35 3 14 -55 226 -264 526 -486 698 -516 57 -10 67 -8 109 12 84 41
114 124 119 323 2 60 5 108 8 108 8 0 57 -82 79 -132 l20 -48 -22 0 c-31 0
-43 -23 -72 -140 -29 -117 -46 -158 -86 -199 -49 -52 -85 -65 -184 -68 -100
-2 -166 12 -331 73 -194 70 -234 83 -239 74 -10 -16 131 -86 316 -155 286
-108 525 -139 637 -83 113 56 123 158 37 379 -19 50 -35 95 -35 101 0 12 79
-45 121 -88 31 -32 32 -35 14 -48 -22 -16 -23 -64 -2 -196 25 -162 -9 -240
-135 -305 -87 -46 -195 -63 -430 -69 -81 -3 -155 -9 -165 -14 -31 -18 69 -27
282 -26 455 2 728 103 728 269 0 78 -41 144 -175 283 -70 72 -64 76 59 35 72
-23 81 -28 72 -44 -17 -33 -9 -64 34 -129 74 -113 92 -157 91 -230 0 -100 -51
-175 -175 -258 -44 -30 -201 -112 -214 -112 -15 0 -195 -93 -195 -101 0 -14
15 -11 97 16 252 85 527 234 650 353 68 67 103 128 105 184 2 103 -74 168
-317 273 -40 17 -40 17 -14 25 15 4 61 11 103 15 l77 7 -6 -25 c-8 -31 20 -62
116 -129 150 -106 187 -194 140 -331 -33 -94 -95 -180 -240 -332 -150 -158
-166 -210 -26 -86 128 114 291 298 371 421 144 218 159 355 48 428 -54 36
-133 52 -271 55 -57 1 -103 5 -103 9 0 10 119 75 151 83 22 5 27 3 33 -18 6
-25 48 -43 156 -66 119 -26 177 -61 218 -131 24 -41 27 -55 27 -145 0 -116
-13 -167 -90 -377 -77 -206 -75 -250 4 -93 158 318 243 684 192 833 -31 90
-78 124 -172 123 -55 0 -195 -39 -277 -77 -19 -9 -36 -13 -39 -10 -8 8 39 75
82 116 32 31 36 32 47 17 17 -22 66 -24 166 -8 172 28 264 -1 322 -101 57 -99
75 -200 85 -466 5 -155 17 -206 32 -137 15 73 8 440 -11 560 -56 356 -171 489
-349 401 -55 -27 -71 -40 -181 -145 l-68 -66 6 35 c9 53 49 170 57 170 4 0 11
-5 14 -10 13 -22 61 -8 134 38 102 65 143 83 205 89 131 14 264 -114 370 -357
83 -189 126 -264 126 -219 0 50 -125 348 -205 490 -160 283 -309 399 -432 336
-61 -32 -139 -153 -205 -317 l-11 -25 -8 30 c-5 17 -11 63 -14 103 -4 69 -3
73 15 67 31 -10 57 11 116 95 64 91 130 154 181 171 54 18 141 6 214 -30 76
-36 161 -102 290 -225 52 -49 104 -96 117 -104 74 -48 -6 59 -148 197 -109
107 -222 200 -323 266 -239 155 -381 149 -446 -20 -13 -33 -26 -166 -26 -257
0 -33 -4 -57 -10 -55 -5 2 -29 41 -53 88 -44 83 -44 84 -21 87 33 5 46 27 64
107 38 169 70 230 144 273 40 24 58 27 138 28 95 2 172 -14 302 -61 36 -13
103 -38 149 -55 145 -53 162 -37 30 28 -337 165 -696 246 -842 191 -129 -48
-149 -139 -76 -345 61 -174 60 -162 8 -125 -67 48 -126 111 -105 111 34 0 39
50 17 163 -13 61 -13 163 -1 205 36 124 204 196 475 202 149 3 214 7 244 15
l27 7 -25 10 c-32 13 -360 18 -460 7 -156 -17 -177 -21 -267 -44 -239 -63
-320 -162 -254 -310 22 -48 60 -97 149 -189 l67 -69 -35 7 c-61 11 -170 48
-170 57 0 5 5 9 10 9 6 0 10 14 10 32 0 20 -17 58 -51 111 -90 142 -108 220
-70 303 44 96 141 172 340 266 69 33 150 71 179 85 59 28 70 48 20 38 -64 -14
-225 -78 -353 -140 -297 -145 -468 -298 -468 -420 0 -100 73 -163 308 -266
l50 -22 -29 -8 c-17 -5 -65 -11 -109 -14 -77 -6 -78 -6 -67 14 16 32 0 52 -94
120 -144 104 -182 163 -173 266 8 107 83 230 242 397 44 46 93 98 109 115 32
35 33 58 1 41z"/>
</g>
</svg>
