<?xml version="1.0" standalone="no"?>
<!DOCTYPE svg PUBLIC "-//W3C//DTD SVG 20010904//EN"
 "http://www.w3.org/TR/2001/REC-SVG-20010904/DTD/svg10.dtd">
<svg version="1.0" xmlns="http://www.w3.org/2000/svg"
 width="534.000000pt" height="534.000000pt" viewBox="0 0 534.000000 534.000000"
 preserveAspectRatio="xMidYMid meet">
<metadata>
Created by potrace 1.14, written by Peter Selinger 2001-2017
</metadata>
<g transform="translate(0.000000,534.000000) scale(0.100000,-0.100000)"
fill="#000000" stroke="none">
<path d="M4162 4686 c-30 -35 -116 -170 -169 -266 -287 -525 -474 -829 -639
-1035 -119 -150 -145 -175 -176 -168 -21 4 -27 12 -33 41 -3 21 -12 46 -19 57
-7 11 -16 34 -20 50 -8 31 -36 96 -46 105 -3 3 -7 18 -9 35 -13 118 -101 243
-231 331 -55 37 -173 94 -194 94 -20 0 -95 -36 -156 -75 -77 -48 -140 -106
-179 -164 -43 -63 -85 -167 -75 -183 4 -6 2 -8 -4 -4 -13 8 -121 -260 -124
-311 -1 -6 -7 -9 -14 -6 -20 7 -109 -23 -237 -81 -32 -14 -64 -26 -72 -26 -8
0 -30 -8 -50 -17 -34 -16 -40 -16 -193 15 -86 18 -170 35 -187 37 -16 3 -57
10 -90 15 -391 64 -691 36 -941 -86 -90 -45 -129 -76 -121 -97 13 -35 77 -39
667 -40 316 0 592 -3 613 -6 l39 -6 -21 -26 c-32 -41 -91 -162 -91 -187 0 -26
67 -160 103 -206 91 -118 192 -192 293 -216 33 -7 71 -22 86 -32 14 -10 31
-18 37 -18 6 0 19 -4 29 -10 9 -5 51 -21 92 -35 l75 -26 24 -62 c35 -88 109
-245 121 -252 6 -3 10 -17 10 -29 0 -39 67 -158 117 -210 85 -86 236 -182 301
-191 19 -2 40 3 54 13 13 9 39 25 59 35 20 10 47 29 60 41 62 58 61 59 111
-94 138 -413 272 -665 452 -846 135 -134 281 -229 312 -203 8 6 14 19 14 29 0
29 -98 212 -249 465 -79 132 -183 310 -230 395 -92 164 -224 428 -223 445 0 6
10 36 21 68 12 31 22 68 23 82 1 14 5 25 8 25 4 0 19 37 34 83 15 45 31 89 35
97 4 8 13 38 20 67 14 55 7 50 125 93 32 11 96 39 142 60 45 22 85 40 88 40 2
0 17 5 33 12 15 6 30 12 33 13 60 20 150 93 207 166 51 66 123 200 123 228 0
52 -102 204 -191 285 -35 31 -67 56 -72 56 -5 0 -22 9 -38 21 -16 11 -29 17
-29 13 0 -3 -6 -2 -12 4 -7 5 -39 15 -71 22 -32 6 -78 21 -103 32 -40 17 -44
21 -32 36 11 15 146 170 158 182 3 3 39 43 80 90 41 47 77 87 80 90 3 3 30 34
60 70 30 36 58 67 61 70 21 18 180 240 220 308 69 117 93 165 127 264 74 208
95 468 38 468 -8 0 -27 -15 -44 -34z"/>
<path d="M2097 4438 c-3 -11 -10 -17 -15 -14 -18 11 -120 -30 -149 -60 -43
-43 -53 -89 -34 -146 18 -53 53 -98 77 -98 9 0 12 -5 8 -12 -4 -6 -3 -8 4 -4
6 3 21 2 35 -3 14 -5 28 -7 32 -3 4 4 10 7 13 8 58 4 128 54 118 81 -3 8 -2
12 3 9 10 -7 22 30 12 39 -3 4 -6 12 -6 18 0 5 -6 12 -14 15 -8 3 -11 0 -7 -6
3 -6 2 -13 -4 -17 -6 -4 -8 -11 -5 -16 4 -5 2 -9 -4 -9 -5 0 -8 -9 -6 -19 5
-26 -19 -34 -38 -13 -23 26 -56 105 -63 151 -5 34 -3 42 12 48 10 4 19 2 22
-5 2 -7 10 -12 18 -12 9 0 12 -4 9 -10 -3 -5 -1 -10 4 -10 6 0 10 -5 9 -11 -2
-6 3 -14 10 -16 11 -4 17 17 12 42 -1 6 -3 21 -5 35 -2 14 -4 27 -5 30 -2 3
-2 8 -2 11 1 4 -7 9 -17 12 -13 3 -21 -2 -24 -15z"/>
<path d="M4340 2517 c-8 -7 -23 -24 -32 -39 -19 -28 -11 -42 25 -49 10 -2 17
-7 15 -10 -2 -3 4 -14 12 -24 8 -11 10 -16 3 -12 -8 5 -13 -3 -15 -25 -3 -37
-29 -46 -38 -13 -3 11 -10 21 -16 22 -14 3 -25 -45 -12 -53 4 -3 5 -11 1 -17
-4 -7 -8 -23 -9 -37 -1 -14 -4 -49 -7 -78 -2 -29 -7 -55 -11 -59 -13 -13 -5
-33 13 -33 12 0 21 9 25 24 6 24 15 28 126 52 14 3 27 9 28 15 2 5 8 7 12 4 5
-3 25 4 44 15 20 11 36 18 36 15 0 -2 12 7 26 20 25 23 26 26 11 48 -16 24
-97 110 -97 102 0 -2 -11 6 -24 18 -13 13 -37 29 -53 37 -44 23 -58 39 -44 53
12 12 15 37 4 37 -5 0 -15 -6 -23 -13z m81 -127 c27 -15 24 -27 -11 -45 -32
-17 -36 -12 -24 33 7 25 8 26 35 12z"/>
<path d="M1544 1517 c-4 -13 -1 -23 10 -29 27 -15 19 -34 -44 -99 -59 -61 -61
-62 -78 -43 -12 13 -17 30 -14 56 4 44 -8 54 -34 28 -36 -36 -41 -46 -33 -65
4 -11 8 -17 8 -14 1 3 31 -23 67 -58 37 -34 71 -63 76 -63 5 0 6 -4 3 -10 -3
-5 -3 -10 2 -10 12 0 80 -60 68 -60 -11 -1 35 -29 47 -30 4 0 21 14 38 32 34
36 26 51 -21 38 -17 -5 -29 -5 -29 1 0 5 -3 8 -7 7 -5 -1 -17 4 -29 11 -20 14
-20 15 20 50 23 20 42 39 44 43 2 3 14 18 27 32 22 24 55 27 55 5 0 -5 9 -9
20 -9 29 0 25 13 -17 46 -21 16 -68 59 -105 95 -60 59 -68 64 -74 46z"/>
</g>
</svg>
