<?xml version="1.0" standalone="no"?>
<!DOCTYPE svg PUBLIC "-//W3C//DTD SVG 20010904//EN"
 "http://www.w3.org/TR/2001/REC-SVG-20010904/DTD/svg10.dtd">
<svg version="1.0" xmlns="http://www.w3.org/2000/svg"
 width="423.000000pt" height="423.000000pt" viewBox="0 0 423.000000 423.000000"
 preserveAspectRatio="xMidYMid meet">
<metadata>
Created by potrace 1.14, written by Peter Selinger 2001-2017
</metadata>
<g transform="translate(0.000000,423.000000) scale(0.100000,-0.100000)"
fill="#000000" stroke="none">
<path d="M2011 4198 c-8 -18 -15 -38 -15 -45 -1 -6 -5 -15 -10 -20 -5 -5 -6
-2 -2 7 4 8 1 6 -8 -4 -8 -10 -13 -22 -11 -26 2 -4 -4 -16 -13 -26 -10 -10
-21 -27 -25 -36 -5 -14 -19 -18 -64 -18 -32 -1 -87 -7 -123 -14 -85 -17 -309
-107 -355 -141 -30 -24 -45 -28 -108 -29 -63 -1 -82 -6 -146 -40 -41 -21 -115
-66 -164 -99 -101 -68 -97 -68 -233 -7 -36 17 -70 30 -75 30 -15 0 -10 -39 7
-65 9 -14 27 -59 39 -100 23 -74 23 -76 4 -70 -11 4 -18 3 -17 -2 1 -4 -16
-26 -37 -48 -55 -55 -76 -83 -104 -135 -13 -25 -34 -58 -46 -75 -23 -32 -68
-143 -85 -211 -6 -23 -16 -44 -24 -47 -27 -11 -104 -133 -135 -216 -36 -94
-61 -208 -61 -279 0 -60 -9 -92 -25 -92 -29 0 -65 -41 -65 -74 0 -33 5 -39 74
-89 18 -13 18 -18 6 -76 -9 -45 -11 -100 -6 -194 7 -156 15 -191 58 -283 29
-64 32 -77 33 -179 1 -115 18 -185 69 -280 19 -36 129 -182 147 -195 10 -7
-21 -97 -48 -140 -13 -19 -34 -46 -48 -59 -14 -13 -25 -27 -25 -32 0 -16 32
-23 50 -11 10 6 62 14 117 18 l99 7 39 -49 c22 -27 51 -60 65 -73 46 -43 205
-149 250 -167 25 -9 49 -21 54 -26 6 -4 22 -8 37 -8 20 0 36 -12 65 -47 56
-69 87 -97 148 -131 75 -43 147 -61 248 -65 81 -2 89 -5 105 -27 10 -14 44
-53 76 -87 33 -34 69 -75 81 -92 23 -34 59 -42 55 -14 -8 48 36 116 103 164
26 19 27 19 105 -7 43 -14 111 -28 153 -31 138 -9 312 34 358 90 10 12 19 12
65 0 117 -31 275 -12 375 47 18 11 38 17 44 14 6 -4 8 -2 4 4 -3 6 1 15 9 20
19 10 112 -35 192 -92 59 -42 78 -46 66 -13 -9 24 -11 172 -3 227 4 28 12 38
43 53 20 11 77 62 127 114 99 105 155 200 166 284 6 41 12 52 35 65 46 23 95
71 144 139 51 72 64 101 74 165 7 52 19 57 124 59 66 1 67 1 67 29 0 17 -11
37 -28 54 -16 14 -39 48 -52 75 -13 26 -30 60 -37 76 -13 25 -12 31 11 75 40
74 54 123 66 234 13 113 7 200 -17 260 -14 36 -14 43 2 91 36 110 31 213 -17
367 l-21 64 47 41 c38 34 46 47 46 76 l0 35 -82 20 c-50 12 -82 25 -81 32 2 7
-4 9 -14 5 -14 -5 -15 -1 -10 24 4 23 2 33 -9 37 -8 3 -19 17 -24 30 -5 14
-28 52 -52 86 -24 34 -48 71 -55 83 -7 12 -37 43 -67 70 -36 31 -57 58 -61 79
-19 83 -65 159 -149 243 -46 47 -91 85 -100 85 -17 0 -32 42 -21 59 3 6 2 11
-3 11 -11 0 -33 112 -30 155 4 79 -9 94 -47 52 -31 -36 -81 -67 -137 -87 l-51
-18 -49 38 c-60 48 -178 94 -311 122 -60 13 -109 29 -119 39 -10 10 -27 20
-38 24 -11 4 -18 11 -15 16 3 5 0 6 -8 3 -7 -2 -34 4 -59 15 -25 11 -74 27
-109 36 -35 9 -81 21 -102 27 -27 8 -43 8 -60 0 -12 -6 -35 -12 -52 -14 -24
-2 -33 3 -52 31 -12 18 -20 38 -16 44 3 5 2 7 -4 4 -5 -3 -19 14 -31 38 -28
57 -60 62 -81 13z m1059 -2648 c0 -5 -5 -10 -11 -10 -5 0 -7 5 -4 10 3 6 8 10
11 10 2 0 4 -4 4 -10z m-126 -14 c-3 -8 -12 -17 -21 -20 -13 -6 -13 -9 1 -31
18 -28 11 -32 -18 -10 -19 15 -19 16 9 45 32 34 37 36 29 16z m-1669 -1174
c-3 -3 -11 0 -18 7 -9 10 -8 11 6 5 10 -3 15 -9 12 -12z"/>
<path d="M2667 3959 c7 -7 15 -10 18 -7 3 3 -2 9 -12 12 -14 6 -15 5 -6 -5z"/>
<path d="M110 2256 c0 -2 8 -10 18 -17 15 -13 16 -12 3 4 -13 16 -21 21 -21
13z"/>
</g>
</svg>
