<?xml version="1.0" standalone="no"?>
<!DOCTYPE svg PUBLIC "-//W3C//DTD SVG 20010904//EN"
 "http://www.w3.org/TR/2001/REC-SVG-20010904/DTD/svg10.dtd">
<svg version="1.0" xmlns="http://www.w3.org/2000/svg"
 width="166.000000pt" height="166.000000pt" viewBox="0 0 166.000000 166.000000"
 preserveAspectRatio="xMidYMid meet">
<metadata>
Created by potrace 1.14, written by Peter Selinger 2001-2017
</metadata>
<g transform="translate(0.000000,166.000000) scale(0.100000,-0.100000)"
fill="#000000" stroke="none">
<path d="M315 1622 c-89 -14 -167 -36 -185 -52 -28 -24 -68 -150 -76 -239 -4
-42 -2 -89 6 -122 13 -59 49 -139 61 -139 4 0 6 -8 5 -17 -2 -10 15 -61 38
-113 l42 -95 -27 -55 c-15 -30 -37 -84 -49 -120 -12 -36 -35 -92 -51 -125 -51
-106 -58 -209 -24 -354 22 -94 41 -113 135 -136 136 -33 284 -19 362 36 14 11
31 19 38 19 6 0 58 23 116 50 58 28 108 50 113 50 4 0 51 -20 103 -44 53 -25
108 -48 124 -52 16 -4 36 -12 44 -19 8 -7 40 -22 70 -33 60 -22 195 -28 253
-11 18 5 44 12 59 14 80 15 99 37 123 140 17 72 22 205 10 247 -7 25 -71 161
-139 298 l-42 85 43 85 c23 47 42 90 43 97 0 6 15 35 34 63 35 53 58 125 59
183 1 91 -31 229 -63 270 -51 65 -313 97 -410 50 -25 -12 -74 -33 -110 -46
-63 -24 -143 -57 -187 -79 -17 -8 -28 -6 -56 11 -19 11 -37 18 -40 14 -4 -3
-7 -2 -7 4 0 6 -34 25 -75 42 -41 17 -89 40 -107 50 -58 34 -167 54 -233 43z"/>
</g>
</svg>
