<?xml version="1.0" standalone="no"?>
<!DOCTYPE svg PUBLIC "-//W3C//DTD SVG 20010904//EN"
 "http://www.w3.org/TR/2001/REC-SVG-20010904/DTD/svg10.dtd">
<svg version="1.0" xmlns="http://www.w3.org/2000/svg"
 width="423.000000pt" height="423.000000pt" viewBox="0 0 423.000000 423.000000"
 preserveAspectRatio="xMidYMid meet">
<metadata>
Created by potrace 1.14, written by Peter Selinger 2001-2017
</metadata>
<g transform="translate(0.000000,423.000000) scale(0.100000,-0.100000)"
fill="#000000" stroke="none">
<path d="M2023 4222 c-7 -4 -11 -18 -8 -30 3 -15 -1 -22 -13 -23 -9 0 -12 -3
-6 -5 13 -5 -4 -54 -19 -54 -5 0 -5 -4 -2 -10 3 -5 1 -10 -4 -10 -6 0 -10 -3
-10 -7 4 -24 -4 -33 -28 -34 -16 0 -22 -3 -15 -6 6 -2 12 -9 12 -15 0 -5 -6
-8 -12 -5 -7 2 -22 -3 -33 -12 -12 -9 -15 -10 -7 -1 16 18 16 38 0 22 -16 -16
-31 -15 -22 1 6 9 5 9 -7 0 -12 -10 -18 -10 -29 0 -10 10 -11 9 -5 -2 6 -11 3
-13 -13 -9 -13 4 -22 1 -22 -5 0 -7 -5 -5 -10 3 -8 13 -14 8 -12 -11 1 -3 -6
-6 -14 -6 -10 0 -14 7 -11 19 3 10 1 16 -4 12 -5 -3 -9 -11 -9 -19 0 -7 -8
-12 -17 -10 -10 1 -26 -5 -37 -14 -10 -9 -20 -15 -22 -13 -10 6 -25 1 -20 -7
4 -5 -5 -8 -19 -6 -14 1 -28 -2 -31 -7 -3 -5 -13 -7 -21 -3 -13 4 -14 3 -4 -9
11 -13 8 -14 -19 -6 -27 8 -30 7 -19 -6 10 -12 9 -13 -5 -8 -9 3 -16 1 -16 -6
0 -6 -4 -8 -10 -5 -5 3 -10 0 -10 -7 0 -9 -3 -9 -10 2 -7 11 -10 11 -10 2 0
-7 -4 -10 -10 -7 -5 3 -10 1 -10 -5 0 -7 -7 -9 -16 -6 -14 5 -15 4 -4 -9 11
-13 10 -14 -4 -9 -9 3 -16 1 -16 -5 0 -6 -7 -11 -15 -11 -8 0 -15 -4 -15 -9 0
-4 -21 -8 -46 -8 -31 0 -41 3 -32 9 9 7 8 8 -5 4 -10 -3 -21 -6 -23 -6 -3 0 1
-10 7 -22 l11 -23 -21 23 c-22 22 -23 22 -39 4 -9 -10 -13 -12 -8 -4 12 17
-12 13 -32 -6 -8 -7 -18 -10 -23 -7 -5 4 -9 1 -9 -5 0 -6 -4 -8 -10 -5 -5 3
-10 1 -10 -5 0 -6 -12 -15 -26 -20 -14 -6 -23 -13 -21 -17 3 -5 -7 -9 -21 -10
-15 0 -28 -6 -30 -12 -2 -6 -10 -11 -18 -11 -8 0 -14 -5 -14 -11 0 -5 6 -7 13
-3 6 4 8 3 4 -1 -12 -14 -38 -15 -31 -2 4 7 -8 -3 -26 -20 -18 -18 -36 -30
-41 -27 -5 3 -9 0 -9 -6 0 -6 -6 -10 -12 -9 -26 3 -37 -1 -34 -13 1 -7 1 -10
-1 -5 -3 4 -10 4 -15 1 -7 -5 -8 -2 -4 5 5 8 3 12 -5 10 -29 -3 -39 2 -39 19
0 14 -2 15 -10 2 -6 -10 -10 -11 -10 -3 0 7 -6 12 -12 10 -7 -1 -12 3 -11 10
3 12 -14 12 -34 0 -6 -4 -17 -5 -25 -2 -9 4 -14 -2 -14 -14 0 -11 3 -18 7 -15
4 2 10 -3 13 -12 3 -8 10 -13 15 -9 5 3 12 1 15 -4 7 -10 -20 -9 -30 2 -4 4
-12 7 -18 7 -6 0 0 -7 12 -16 13 -9 21 -22 18 -30 -3 -8 -1 -14 5 -14 6 0 8
-4 4 -9 -3 -5 0 -13 6 -17 8 -5 9 -3 4 7 -5 8 -4 10 0 6 13 -11 15 -38 3 -31
-6 4 -8 -1 -3 -15 4 -12 2 -21 -4 -21 -6 0 -11 -5 -11 -11 0 -5 5 -7 12 -3 7
4 8 3 4 -5 -6 -9 -11 -9 -24 1 -9 7 -13 9 -11 3 3 -5 -2 -18 -13 -27 -12 -12
-18 -14 -18 -5 -1 6 -6 -1 -13 -16 -7 -16 -16 -29 -22 -30 -5 -1 -9 -9 -9 -19
1 -10 -4 -14 -12 -11 -9 3 -14 -2 -14 -12 0 -11 -5 -15 -14 -12 -10 4 -13 1
-9 -8 3 -8 10 -12 17 -9 6 4 0 -5 -14 -18 -14 -14 -28 -23 -32 -21 -5 2 -8 -1
-8 -6 0 -6 5 -11 10 -11 6 0 5 -6 -2 -14 -7 -8 -16 -12 -20 -10 -4 3 -5 -5 -3
-17 4 -18 2 -19 -12 -7 -13 10 -15 10 -9 0 4 -7 2 -20 -6 -29 -11 -14 -11 -16
2 -8 12 7 13 6 3 -7 -7 -8 -10 -18 -6 -22 4 -4 -1 -4 -11 0 -13 5 -17 4 -12
-4 3 -6 2 -14 -4 -17 -8 -5 -7 -12 2 -23 7 -10 9 -14 4 -10 -5 4 -15 1 -22 -7
-15 -15 -19 -29 -6 -21 5 3 9 -1 9 -9 0 -8 -7 -15 -15 -15 -12 0 -12 -2 -1
-17 8 -9 9 -14 3 -10 -17 10 -27 -24 -12 -36 9 -6 6 -7 -10 -4 -19 5 -21 3
-11 -9 9 -11 8 -14 -4 -14 -9 0 -19 -5 -23 -12 -4 -7 -3 -8 4 -4 7 4 12 3 12
-2 0 -5 -9 -12 -20 -15 -11 -3 -19 -11 -18 -17 2 -7 -5 -14 -15 -15 -22 -4
-36 -15 -18 -15 8 0 5 -10 -8 -29 -11 -15 -18 -31 -14 -35 3 -3 1 -6 -5 -6 -7
0 -12 -7 -12 -16 0 -9 5 -12 12 -8 7 4 8 3 4 -5 -6 -9 -11 -9 -21 -1 -9 8 -12
4 -10 -15 2 -14 -1 -25 -6 -25 -5 0 -9 -11 -9 -25 0 -14 -6 -25 -12 -25 -10 0
-9 -3 1 -9 11 -7 11 -9 0 -13 -12 -4 -12 -8 -1 -21 11 -13 10 -15 -10 -10 -18
4 -20 3 -8 -6 11 -8 11 -11 2 -11 -9 0 -10 -5 -2 -19 14 -26 13 -27 -12 -52
-13 -12 -17 -19 -10 -15 8 5 11 0 8 -16 -2 -13 1 -31 6 -41 5 -9 5 -17 1 -16
-20 3 -27 -2 -13 -11 13 -9 13 -10 0 -10 -13 0 -13 -1 0 -10 13 -9 13 -10 0
-10 -13 0 -13 -1 0 -11 12 -9 10 -10 -8 -6 -19 5 -21 3 -11 -9 6 -8 10 -15 8
-17 -39 -22 -52 -27 -61 -21 -6 4 -8 3 -4 -4 3 -6 2 -13 -4 -17 -17 -11 -12
-65 6 -65 9 0 14 -6 11 -13 -3 -8 1 -14 9 -15 8 -1 21 -3 28 -4 8 -1 15 -4 14
-7 -2 -24 4 -32 20 -27 15 6 15 5 -1 -8 -11 -8 -14 -17 -8 -20 6 -4 8 -13 5
-21 -4 -8 -9 -13 -13 -10 -9 5 -7 -32 2 -41 3 -4 -1 -13 -9 -21 -8 -9 -11 -20
-6 -27 4 -6 9 -24 11 -40 2 -20 -1 -26 -10 -21 -8 6 -10 4 -3 -6 13 -22 16
-51 3 -44 -6 4 -5 -3 3 -14 11 -18 11 -23 -2 -31 -12 -8 -11 -10 7 -10 12 0
24 -4 27 -9 4 -5 -2 -7 -11 -5 -14 4 -18 -1 -18 -19 0 -17 4 -23 14 -19 9 3
12 1 7 -6 -13 -21 -15 -52 -4 -52 6 0 5 -6 -2 -16 -11 -12 -11 -15 0 -12 8 2
15 -1 15 -7 2 -23 17 -55 26 -55 5 0 9 -5 9 -11 0 -5 -4 -8 -8 -5 -5 3 -9 -1
-9 -9 0 -8 4 -12 9 -9 4 3 8 -2 8 -10 0 -9 5 -16 10 -16 6 0 10 -9 10 -20 0
-11 5 -20 10 -20 6 0 10 -5 10 -11 0 -5 -4 -8 -8 -5 -5 3 -9 -1 -9 -9 0 -8 5
-11 11 -8 6 4 5 0 -2 -9 -9 -11 -10 -18 -2 -23 6 -3 7 -12 3 -18 -14 -22 -14
-57 -1 -57 10 0 10 -2 0 -9 -8 -4 -14 -12 -14 -16 0 -4 6 -12 14 -17 10 -7 10
-11 1 -15 -10 -3 -10 -8 1 -18 7 -8 12 -26 10 -40 -2 -21 1 -25 13 -21 14 6
14 4 2 -11 -12 -15 -12 -16 5 -9 19 7 19 6 2 -13 -16 -18 -16 -19 1 -17 13 1
18 -6 17 -26 -1 -18 4 -28 12 -28 8 0 14 5 14 12 0 6 3 8 6 5 4 -4 1 -13 -6
-22 -9 -11 -9 -15 -1 -15 7 0 10 -4 6 -9 -3 -5 0 -13 6 -16 5 -4 8 -13 6 -19
-3 -7 1 -13 9 -13 7 0 10 5 7 11 -4 6 -2 7 3 3 5 -5 9 -12 9 -15 2 -21 18 -52
24 -47 5 2 17 -5 27 -18 19 -21 19 -21 0 -7 -19 15 -19 14 -2 -12 9 -14 24
-29 32 -32 9 -3 12 -10 9 -16 -3 -5 -1 -10 6 -10 7 0 4 -7 -7 -16 -10 -8 -14
-13 -8 -10 15 8 26 -21 12 -30 -7 -4 -8 -3 -4 4 4 7 3 12 -2 12 -17 0 -22 -13
-9 -28 10 -13 9 -15 -7 -9 -15 6 -17 5 -7 -7 9 -11 8 -15 -4 -20 -8 -3 -15
-13 -15 -21 0 -10 -5 -13 -12 -9 -7 4 -8 3 -4 -4 4 -7 2 -12 -3 -12 -6 0 -11
-7 -11 -15 0 -8 5 -15 11 -15 5 0 7 5 3 12 -4 7 -3 8 4 4 16 -10 15 -14 -8
-26 -11 -6 -20 -7 -19 -3 1 4 1 15 0 23 -1 13 -2 13 -11 0 -5 -9 -5 -19 0 -26
6 -6 7 -13 4 -17 -5 -5 21 -2 36 3 3 1 9 2 13 1 5 -1 6 3 2 9 -8 13 1 13 27
-1 15 -8 19 -8 14 0 -10 15 7 14 23 -2 10 -8 12 -8 7 0 -3 6 -2 14 4 18 5 3
10 0 10 -7 1 -8 7 -5 17 7 11 14 14 15 10 4 -4 -12 1 -16 19 -16 21 0 23 2 12
16 -12 15 -11 15 7 0 31 -25 49 -34 41 -21 -5 8 -2 10 8 6 9 -3 13 -10 10 -15
-3 -5 3 -9 13 -10 10 0 13 -3 6 -5 -13 -6 -6 -34 9 -34 5 0 6 5 2 12 -4 7 -3
8 5 4 9 -6 9 -12 -1 -24 -7 -10 -9 -14 -4 -10 8 7 47 -22 42 -31 -2 -3 3 -13
12 -21 14 -13 15 -12 9 3 -4 11 -3 16 3 12 6 -3 10 -13 10 -21 0 -11 6 -14 23
-9 12 3 17 3 11 -2 -7 -5 -3 -15 13 -31 14 -14 23 -18 23 -10 0 9 3 9 9 -2 6
-8 7 -19 3 -25 -3 -5 3 -3 13 5 11 9 16 10 11 3 -4 -8 -2 -13 4 -13 6 0 8 -5
4 -11 -4 -8 -1 -8 14 0 17 9 23 8 31 -8 6 -10 7 -22 3 -26 -4 -5 -2 -5 4 -2 7
4 24 -3 40 -15 21 -17 29 -19 32 -9 3 10 9 7 19 -10 8 -13 12 -16 9 -7 -3 10
-1 20 5 23 5 4 8 1 7 -7 -2 -7 5 -12 14 -12 10 1 16 -2 13 -6 -3 -4 2 -11 11
-14 8 -3 12 -2 9 4 -3 6 -1 10 4 10 6 0 11 -7 11 -15 0 -8 6 -14 13 -12 6 1
11 -4 10 -10 -2 -7 3 -13 11 -13 8 0 17 -7 20 -16 6 -15 4 -15 -11 -3 -16 13
-17 12 -4 -4 7 -9 23 -17 35 -17 17 0 18 -2 6 -10 -13 -8 -13 -10 2 -10 9 0
20 -9 23 -20 7 -22 30 -27 39 -7 3 6 3 -1 1 -17 -2 -16 -1 -26 2 -23 3 4 19
-1 35 -9 16 -8 33 -12 39 -8 6 3 9 -2 7 -12 -2 -15 3 -19 25 -18 15 1 27 -3
27 -7 0 -11 23 -7 32 6 5 6 8 3 8 -6 0 -11 9 -16 28 -15 15 1 42 -2 59 -5 23
-5 31 -3 27 5 -3 6 2 2 10 -8 14 -17 16 -18 16 -3 0 9 4 17 10 17 5 0 7 -6 4
-14 -6 -15 11 -16 34 -3 11 8 17 -4 13 -27 -1 -5 5 -4 13 3 13 11 15 10 11 -8
-2 -12 0 -19 6 -16 5 4 9 -1 9 -10 0 -9 4 -13 10 -10 5 3 15 -5 21 -19 6 -13
20 -27 31 -29 11 -3 17 -10 14 -15 -7 -12 22 -25 36 -16 6 4 5 -2 -1 -15 -10
-18 -9 -20 5 -14 12 4 15 3 10 -5 -4 -7 -2 -12 4 -12 6 0 8 -4 5 -10 -3 -5 -1
-10 5 -10 6 0 8 -4 5 -10 -9 -14 29 -12 43 2 7 7 12 17 12 23 0 5 -5 3 -10 -5
-8 -12 -9 -9 -8 12 1 15 6 24 10 22 4 -3 8 4 8 14 0 11 8 26 17 33 15 12 16
12 8 -1 -5 -9 -5 -12 1 -7 5 5 10 13 10 18 1 5 2 14 3 20 0 5 4 8 9 6 10 -7
32 19 24 29 -4 4 -1 4 6 0 9 -5 22 1 35 15 19 20 22 21 25 6 2 -9 8 -17 13
-17 6 0 8 4 5 9 -4 5 5 4 19 -2 14 -7 25 -16 25 -21 0 -5 6 -3 14 3 10 9 16 8
25 -3 7 -8 20 -12 28 -9 10 4 14 2 10 -4 -8 -13 11 -12 32 1 10 6 12 5 7 -2
-9 -15 6 -16 21 -1 8 8 13 7 18 -2 6 -8 4 -10 -5 -4 -9 5 -11 4 -6 -4 6 -8 12
-9 20 -2 7 6 16 8 19 4 4 -3 14 0 24 8 15 13 16 12 9 -6 -6 -16 -5 -18 5 -8
17 17 32 17 23 1 -4 -7 3 -4 16 7 14 12 20 14 15 5 -4 -8 4 -4 19 10 15 14 26
19 24 11 -2 -7 3 -16 10 -18 6 -3 12 0 12 6 0 5 9 8 20 6 11 -2 20 1 20 7 0 6
9 8 20 5 11 -3 20 -1 20 5 0 6 6 8 13 5 14 -5 39 18 29 27 -3 4 2 4 12 0 14
-5 17 -4 12 4 -4 7 -1 12 9 12 12 0 15 5 11 18 -7 16 -6 16 10 0 12 -12 23
-14 40 -7 19 7 24 5 24 -7 0 -13 3 -14 14 -5 10 9 16 8 26 -4 11 -13 16 -13
44 2 l31 16 -20 -24 c-11 -13 -13 -18 -5 -12 8 7 22 13 32 13 10 0 18 6 19 13
0 6 4 3 9 -8 5 -11 9 -15 9 -8 1 7 8 10 18 6 10 -4 14 -2 10 4 -9 14 25 12 36
-2 5 -7 10 -7 15 0 10 14 56 39 48 27 -7 -12 20 -10 31 3 4 4 2 5 -6 0 -9 -5
-12 -4 -7 3 4 6 13 9 21 5 8 -3 15 0 15 7 0 7 6 10 14 7 8 -3 17 1 20 10 4 9
13 13 22 9 8 -3 13 -2 10 3 -3 5 6 16 20 26 25 16 26 16 31 -6 6 -22 7 -22 14
-3 6 15 8 15 8 3 1 -9 9 -23 18 -30 11 -10 14 -10 9 -1 -4 6 -2 12 3 12 6 0
11 -4 11 -10 0 -5 9 -10 21 -10 11 0 18 -3 16 -8 -3 -4 2 -14 11 -22 14 -13
15 -12 9 4 -6 15 -5 17 6 8 8 -7 17 -10 20 -7 4 3 5 2 2 -1 -2 -4 3 -13 11
-21 8 -8 12 -18 10 -22 -3 -4 5 -8 17 -8 20 -2 20 -1 5 8 -10 6 -18 15 -18 22
0 7 4 6 10 -3 5 -8 10 -11 10 -6 0 5 8 2 18 -5 15 -13 16 -12 3 4 -7 9 -10 17
-6 17 4 0 1 8 -6 17 -8 9 -9 14 -4 11 6 -4 17 3 25 15 12 20 12 21 -3 9 -14
-12 -16 -10 -14 10 0 13 6 26 12 30 7 5 7 8 -1 8 -11 0 -13 37 -2 55 3 6 4 18
3 28 -2 10 3 17 13 17 15 1 15 2 0 11 -10 5 -18 15 -18 22 0 7 4 6 10 -3 7
-12 11 -10 19 10 5 14 10 19 10 12 1 -7 6 -10 11 -7 6 4 7 11 4 17 -4 6 -3 8
3 5 5 -4 19 2 30 13 12 10 24 16 29 12 4 -4 4 1 1 11 -4 10 -3 16 2 13 5 -3
11 1 15 9 3 8 12 15 20 15 8 0 18 5 22 12 4 7 3 8 -4 4 -8 -5 -10 -2 -6 9 5
12 9 13 20 4 12 -10 13 -9 8 5 -4 9 -1 16 6 16 7 0 10 7 6 15 -3 8 -2 14 2 14
20 -3 33 2 27 11 -3 5 -1 10 5 10 6 0 8 5 4 12 -5 7 -2 9 9 5 12 -4 14 -2 10
10 -4 11 -2 14 5 9 8 -5 10 -1 5 10 -4 12 -3 15 5 10 7 -4 12 -1 12 9 0 9 5
13 11 9 7 -4 7 1 -1 16 -9 18 -9 21 0 15 12 -7 30 10 30 30 0 6 -5 3 -10 -5
-6 -9 -10 -10 -10 -3 0 6 5 15 11 18 6 4 8 13 5 21 -3 8 -2 13 2 13 19 -3 22
3 11 22 -8 16 -8 20 0 14 8 -4 10 2 7 19 -3 14 0 26 5 26 6 0 17 6 24 13 34
30 43 35 49 30 6 -6 10 13 7 31 -1 5 6 3 15 -5 10 -8 15 -9 12 -4 -3 6 4 19
15 30 11 11 16 14 12 6 -6 -10 -4 -12 4 -7 7 5 10 10 7 13 -3 3 6 19 19 35 14
16 22 35 19 40 -5 7 -2 8 6 3 10 -6 12 -4 6 10 -6 16 -4 16 10 4 16 -13 16
-12 6 8 -16 29 -15 34 5 26 11 -4 14 -3 9 5 -4 7 -2 12 5 12 7 0 9 10 7 25 -4
17 -1 25 8 25 8 0 11 6 8 15 -4 8 -11 12 -18 8 -6 -4 -5 1 3 10 7 9 17 15 21
12 5 -3 12 0 16 6 4 8 3 9 -4 5 -7 -4 -12 -2 -12 3 0 6 5 11 11 11 5 0 7 6 4
13 -4 6 1 3 9 -7 12 -15 16 -16 16 -5 0 10 10 14 34 13 19 -1 39 -5 45 -8 7
-5 8 -1 4 11 -7 17 -6 17 21 -1 16 -10 26 -13 22 -8 -3 6 -2 13 4 17 26 16 -4
85 -37 85 -6 0 -17 13 -25 30 -7 16 -17 30 -22 30 -4 0 -2 8 5 17 8 9 10 14 4
11 -16 -9 -49 28 -34 38 8 4 10 3 5 -4 -4 -7 -3 -12 2 -12 6 0 12 7 16 15 3 8
2 14 -2 14 -18 -3 -32 2 -32 12 0 5 5 7 11 3 8 -4 8 0 0 15 -10 18 -9 21 6 22
10 0 13 3 6 5 -16 7 17 64 37 65 11 0 11 2 2 6 -10 4 -10 8 0 21 11 13 11 14
-2 7 -12 -7 -13 -6 -3 7 7 8 10 18 6 21 -3 4 2 7 13 7 15 0 16 2 4 9 -8 6 -18
7 -22 5 -4 -3 -8 0 -8 6 0 6 8 10 17 8 15 -3 17 7 18 84 0 71 3 88 15 88 12 0
13 2 1 9 -7 5 -10 14 -7 20 4 6 2 11 -5 11 -7 0 -4 7 7 16 10 8 13 13 7 9 -12
-6 -17 17 -16 63 1 6 -3 12 -8 12 -5 0 -6 6 -3 14 3 7 -2 20 -11 29 -10 11
-12 18 -4 23 8 4 7 9 -2 15 -10 6 -10 9 -2 9 7 0 10 7 6 17 -4 11 -3 14 5 9 7
-4 12 -2 12 3 0 6 -4 11 -10 11 -5 0 -10 8 -10 18 0 14 2 15 10 2 8 -13 10
-12 10 3 0 10 4 16 9 12 5 -3 13 0 17 6 4 7 3 9 -3 6 -6 -4 -13 0 -17 8 -3 8
0 15 6 15 6 0 5 6 -3 17 -8 9 -9 14 -3 10 7 -4 14 0 18 8 3 10 -1 15 -12 16
-14 0 -14 2 3 9 11 5 14 9 6 9 -10 1 -11 4 -2 15 9 11 9 16 0 22 -8 5 -9 3 -4
-6 6 -9 4 -11 -5 -5 -10 6 -9 11 4 21 16 11 16 13 -6 17 l-23 4 23 2 c19 1 21
3 10 15 -7 8 -17 12 -21 9 -5 -3 -4 4 2 15 7 14 8 23 1 27 -5 3 -10 17 -10 31
0 14 -4 22 -10 19 -5 -3 -10 -1 -10 4 0 6 6 11 13 11 8 0 8 3 -2 9 -8 5 -12
18 -8 30 3 12 2 19 -2 17 -4 -3 -13 -1 -19 3 -10 6 -9 11 4 22 15 12 17 12 9
0 -5 -10 -4 -12 4 -7 9 6 9 11 0 22 -10 12 -9 13 7 7 17 -6 17 -5 5 10 -12 15
-12 17 2 12 8 -4 18 -1 22 4 3 6 10 9 15 6 5 -3 12 0 16 6 5 8 2 10 -7 5 -8
-4 -6 -1 4 7 11 9 17 28 17 52 0 21 -3 36 -6 33 -3 -4 -18 -3 -34 2 -18 5 -32
4 -40 -3 -10 -9 -11 -9 -5 2 6 11 3 13 -14 8 -16 -4 -20 -2 -12 6 7 9 1 12
-22 12 -22 0 -31 4 -29 14 2 8 -3 11 -13 8 -15 -6 -19 4 -16 32 2 7 -2 10 -8
6 -7 -4 -8 0 -4 10 3 10 0 21 -8 26 -12 7 -12 10 -1 18 11 7 10 9 -3 14 -11 5
-14 3 -10 -6 4 -6 -2 -1 -13 13 -11 13 -18 28 -16 31 2 4 -3 14 -11 22 -8 9
-15 23 -15 31 0 9 -7 16 -16 16 -8 0 -12 5 -9 10 3 6 1 10 -4 10 -6 0 -11 5
-11 11 0 22 -42 69 -63 70 -12 0 -17 3 -10 6 10 3 10 7 0 18 -9 9 -14 10 -19
1 -5 -6 -8 -2 -8 11 0 12 -9 28 -21 36 -11 8 -21 24 -22 36 -1 11 -6 21 -12
21 -5 0 -3 5 5 10 11 7 11 10 2 10 -7 0 -10 5 -6 12 4 6 3 8 -4 4 -6 -3 -13
-2 -17 4 -3 5 -1 10 6 10 8 0 8 4 -1 15 -7 8 -17 12 -24 8 -6 -3 -8 -3 -4 2 4
4 2 15 -5 24 -10 14 -10 14 5 3 12 -10 18 -10 24 -1 4 8 3 9 -5 5 -6 -4 -14 0
-17 8 -3 9 -11 13 -17 9 -6 -4 -8 0 -4 10 4 12 1 17 -11 17 -15 0 -15 2 -2 10
13 8 12 10 -3 10 -10 0 -15 5 -12 10 4 6 1 9 -7 8 -7 -2 -12 3 -10 10 1 8 -2
11 -6 8 -5 -3 -19 3 -31 13 -23 20 -29 37 -8 25 6 -4 8 -3 4 2 -4 4 -18 9 -30
9 -15 0 -23 7 -25 22 -2 12 -10 24 -19 27 -14 6 -14 4 -2 -11 7 -10 1 -7 -13
6 -23 20 -25 27 -17 44 8 14 8 18 0 13 -7 -5 -11 2 -11 18 0 13 -6 27 -12 29
-10 4 -9 6 1 6 10 1 11 4 2 15 -7 8 -12 48 -13 90 -1 86 -11 94 -51 46 -16
-19 -27 -25 -30 -17 -3 7 -6 5 -6 -5 -1 -10 -7 -17 -13 -15 -7 1 -12 -4 -10
-12 3 -12 1 -12 -14 0 -16 13 -17 12 -11 -5 7 -17 6 -17 -10 -5 -14 12 -16 12
-11 -1 5 -12 -1 -16 -23 -14 -16 1 -32 -2 -35 -7 -3 -5 -10 -9 -15 -9 -6 0 -7
4 -4 10 4 6 -1 7 -11 3 -14 -5 -16 -3 -11 11 4 9 3 15 -2 12 -5 -3 -14 1 -21
9 -10 12 -16 13 -28 3 -13 -10 -14 -10 -8 0 4 7 2 12 -6 12 -8 0 -20 9 -28 20
-10 14 -16 16 -22 7 -6 -9 -8 -9 -8 1 0 6 -7 12 -15 12 -8 0 -15 6 -15 13 0 8
-4 7 -10 -3 -6 -10 -10 -11 -10 -2 0 6 -7 12 -15 12 -8 0 -15 4 -15 8 0 5 -10
8 -22 7 -13 -1 -29 3 -37 9 -14 11 -21 12 -77 15 -17 1 -23 5 -18 14 5 8 2 8
-9 -2 -14 -11 -17 -11 -17 0 0 11 -2 11 -10 -1 -5 -8 -10 -10 -10 -4 0 7 -7
15 -16 18 -8 3 -13 2 -10 -3 4 -5 -3 -7 -14 -4 -11 3 -20 11 -20 19 0 7 -5 16
-12 20 -7 5 -8 3 -3 -7 7 -11 5 -11 -11 1 -10 8 -21 17 -24 20 -11 11 -61 30
-55 20 3 -5 -10 -1 -29 11 -24 14 -36 17 -36 8 0 -6 -9 -2 -20 11 -13 15 -20
18 -20 9 0 -8 -3 -10 -8 -4 -9 13 -28 18 -69 19 -18 0 -33 4 -33 9 0 5 -8 3
-17 -4 -12 -10 -15 -11 -9 -1 6 9 1 11 -18 8 -14 -3 -31 -8 -37 -12 -6 -3 -15
0 -20 7 -7 12 -9 11 -9 -1 0 -13 -1 -13 -10 0 -8 13 -10 13 -10 -2 0 -11 -5
-15 -15 -12 -8 4 -12 10 -9 15 3 5 0 9 -6 9 -7 0 -9 7 -6 17 4 10 4 14 0 10
-10 -10 -42 30 -49 64 -4 16 -11 29 -16 29 -6 0 -8 4 -5 9 10 16 -30 26 -51
13z m-336 -237 c0 -8 -4 -12 -9 -9 -5 3 -6 10 -3 15 9 13 12 11 12 -6z m1133
-81 c0 -8 -19 -13 -24 -6 -3 5 1 9 9 9 8 0 15 -2 15 -3z m245 -103 c3 -5 2
-12 -3 -15 -5 -3 -9 1 -9 9 0 17 3 19 12 6z m-2331 -129 c3 -5 -1 -9 -9 -9 -8
0 -12 4 -9 9 3 4 7 8 9 8 2 0 6 -4 9 -8z m3021 -531 c3 -5 2 -12 -3 -15 -5 -3
-9 1 -9 9 0 17 3 19 12 6z m-3590 -871 c3 -5 1 -10 -4 -10 -6 0 -11 5 -11 10
0 6 2 10 4 10 3 0 8 -4 11 -10z m3934 -894 c-3 -3 -11 5 -18 17 -13 21 -12 21
5 5 10 -10 16 -20 13 -22z"/>
<path d="M657 3707 c-6 -16 40 -15 53 1 7 9 7 9 -2 2 -7 -5 -18 -6 -29 0 -12
7 -18 6 -22 -3z"/>
<path d="M3865 2991 c-3 -5 -2 -12 3 -15 5 -3 9 1 9 9 0 17 -3 19 -12 6z"/>
</g>
</svg>
