<?xml version="1.0" standalone="no"?>
<!DOCTYPE svg PUBLIC "-//W3C//DTD SVG 20010904//EN"
 "http://www.w3.org/TR/2001/REC-SVG-20010904/DTD/svg10.dtd">
<svg version="1.0" xmlns="http://www.w3.org/2000/svg"
 width="423.000000pt" height="423.000000pt" viewBox="0 0 423.000000 423.000000"
 preserveAspectRatio="xMidYMid meet">
<metadata>
Created by potrace 1.14, written by Peter Selinger 2001-2017
</metadata>
<g transform="translate(0.000000,423.000000) scale(0.100000,-0.100000)"
fill="#000000" stroke="none">
<path d="M2020 4214 c0 -21 -55 -132 -81 -163 -17 -21 -30 -25 -92 -27 -40 -1
-99 -9 -132 -18 -89 -23 -305 -113 -332 -137 -18 -18 -36 -22 -97 -24 -88 -2
-140 -25 -301 -130 -57 -36 -111 -65 -125 -65 -14 1 -61 16 -105 34 -44 19
-84 31 -88 26 -5 -4 3 -35 18 -69 14 -35 30 -82 34 -106 7 -38 6 -45 -9 -50
-30 -10 -83 -69 -145 -165 -80 -122 -110 -183 -132 -262 -12 -46 -29 -76 -61
-112 -24 -27 -54 -68 -67 -90 -49 -87 -105 -293 -105 -391 0 -60 -7 -73 -51
-96 -34 -17 -39 -24 -39 -54 0 -19 3 -35 8 -35 4 0 24 -15 45 -33 l38 -32 -11
-85 c-9 -63 -9 -120 -2 -218 10 -120 14 -140 48 -215 35 -76 38 -89 39 -177 0
-52 6 -120 14 -150 15 -65 81 -205 113 -240 13 -14 40 -47 62 -73 l38 -48 -17
-52 c-9 -29 -34 -75 -56 -104 -42 -57 -50 -80 -22 -68 10 4 70 10 134 13 113
4 117 4 124 -17 26 -84 332 -296 435 -302 8 0 38 -28 65 -62 96 -117 202 -168
358 -173 l97 -3 63 -68 c34 -37 71 -75 82 -84 12 -10 30 -33 40 -53 23 -43 45
-47 45 -8 1 15 7 38 14 50 19 35 107 122 123 122 8 0 47 -11 86 -24 105 -35
184 -41 297 -21 102 18 162 40 197 74 21 20 23 20 85 5 77 -20 210 -15 283 11
28 9 70 31 95 48 44 30 105 40 119 20 7 -10 149 -93 159 -93 4 0 7 37 8 83 1
104 12 177 26 177 23 0 113 77 180 154 77 88 136 198 140 260 2 31 9 42 36 61
53 36 127 111 161 162 30 45 61 128 61 164 0 29 27 41 110 46 95 7 102 19 42
79 -21 22 -51 69 -67 108 l-29 68 27 52 c53 101 59 126 64 272 5 118 3 150
-12 197 -18 59 -18 62 10 166 12 45 15 81 10 125 -8 72 -41 205 -57 224 -9 10
1 24 40 62 42 41 52 56 52 83 0 33 -1 34 -58 44 -90 17 -130 37 -138 70 -15
65 -139 250 -206 308 -35 30 -68 82 -68 107 0 7 -13 40 -29 73 -29 62 -148
192 -202 220 -21 11 -28 27 -42 92 -9 43 -17 106 -17 141 0 68 -12 79 -46 41
-24 -27 -88 -64 -143 -84 l-43 -15 -55 40 c-69 49 -181 93 -304 118 -67 14
-111 30 -154 56 -33 20 -105 51 -159 68 -89 27 -108 30 -193 26 l-93 -5 -35
56 c-18 31 -39 69 -44 84 -8 19 -18 27 -36 27 -16 0 -25 -6 -25 -16z m1050
-2664 c0 -5 -5 -10 -11 -10 -5 0 -7 5 -4 10 3 6 8 10 11 10 2 0 4 -4 4 -10z
m-126 -14 c-3 -8 -12 -17 -21 -20 -13 -6 -13 -9 1 -31 18 -28 11 -32 -18 -10
-19 15 -19 16 9 45 32 34 37 36 29 16z m-1669 -1174 c-3 -3 -11 0 -18 7 -9 10
-8 11 6 5 10 -3 15 -9 12 -12z"/>
</g>
</svg>
