<?xml version="1.0" standalone="no"?>
<!DOCTYPE svg PUBLIC "-//W3C//DTD SVG 20010904//EN"
 "http://www.w3.org/TR/2001/REC-SVG-20010904/DTD/svg10.dtd">
<svg version="1.0" xmlns="http://www.w3.org/2000/svg"
 width="290.000000pt" height="290.000000pt" viewBox="0 0 290.000000 290.000000"
 preserveAspectRatio="xMidYMid meet">
<metadata>
Created by potrace 1.14, written by Peter Selinger 2001-2017
</metadata>
<g transform="translate(0.000000,290.000000) scale(0.100000,-0.100000)"
fill="#000000" stroke="none">
<path d="M1520 2790 c0 -5 -3 -9 -7 -9 -35 6 -64 -41 -68 -105 -2 -45 22 -106
41 -106 7 0 14 -4 16 -10 4 -11 78 -20 78 -9 0 5 6 6 14 3 12 -5 14 3 7 51 0
5 -6 4 -13 -3 -18 -18 -45 -15 -68 8 -16 16 -19 29 -15 61 9 70 20 82 71 76
25 -2 43 -2 40 1 -3 3 -1 11 5 18 7 9 5 15 -8 22 -26 13 -93 15 -93 2z"/>
<path d="M2568 2481 c-24 -15 -149 -133 -278 -263 -129 -129 -267 -260 -306
-291 l-71 -57 -51 11 c-28 7 -50 15 -50 18 2 9 -25 95 -32 101 -3 3 -7 12 -9
20 -33 122 -64 182 -125 238 -53 48 -148 102 -179 102 -28 0 -120 -54 -171
-101 -50 -45 -96 -116 -96 -146 0 -8 -6 -27 -14 -41 -29 -53 -56 -119 -56
-133 0 -8 -6 -23 -13 -32 -11 -16 -26 -11 -173 57 -198 91 -284 123 -395 146
-137 28 -260 16 -365 -38 -59 -30 -78 -55 -63 -80 26 -41 101 -67 464 -162
158 -41 250 -69 230 -70 -27 -1 -115 -102 -148 -169 -24 -48 -21 -79 12 -136
66 -114 173 -200 258 -207 17 -1 30 -5 27 -9 -2 -4 22 -17 53 -29 103 -37 113
-42 113 -56 0 -8 4 -22 9 -32 6 -9 22 -45 37 -79 14 -35 30 -61 33 -59 4 3 8
-6 9 -20 6 -70 131 -234 168 -220 8 3 12 2 9 -4 -3 -5 5 -15 18 -21 22 -10 26
-21 36 -98 25 -194 83 -346 167 -440 55 -62 121 -109 163 -117 68 -14 64 70
-15 351 -24 88 -56 206 -71 263 l-26 103 25 27 c13 15 32 39 40 53 22 35 49
129 41 142 -3 5 -1 7 4 4 7 -4 22 30 40 85 28 89 30 92 69 105 47 16 65 23
124 50 25 12 60 26 77 31 81 26 164 107 221 214 l30 57 -26 53 c-15 29 -55 82
-89 117 -35 36 -62 65 -60 66 8 4 189 137 213 156 74 60 192 191 222 247 75
141 91 309 30 318 -9 1 -36 -10 -60 -25z"/>
<path d="M507 1029 c-16 -4 -35 -13 -43 -20 -8 -6 -14 -9 -14 -5 0 4 -14 -1
-30 -9 -17 -9 -35 -13 -40 -10 -6 3 -10 1 -10 -4 0 -6 -9 -11 -20 -11 -11 0
-19 3 -19 8 4 25 -4 38 -24 40 -21 1 -23 -2 -19 -28 2 -17 8 -33 13 -36 5 -3
9 -14 9 -25 0 -10 5 -19 12 -19 6 0 9 -3 5 -6 -7 -8 20 -64 31 -64 4 0 13 4
21 9 10 7 11 13 1 30 -9 17 -9 26 1 37 6 8 15 14 20 14 4 0 20 5 36 12 15 6
32 10 36 9 4 -1 15 5 23 14 9 8 24 15 35 15 19 0 23 13 11 41 -5 12 -14 14
-35 8z"/>
<path d="M2424 967 c-13 -16 -7 -37 18 -61 16 -15 17 -20 6 -27 -7 -5 -9 -9
-5 -9 4 0 0 -9 -10 -19 -18 -19 -37 -22 -58 -9 -14 8 -26 -1 -43 -29 -11 -20
-10 -23 8 -24 11 -1 23 -2 28 -3 13 -4 96 -19 112 -21 8 -1 22 -5 30 -8 45
-16 70 -14 85 9 14 22 14 25 -5 36 -11 7 -20 18 -20 25 0 7 -4 13 -10 13 -5 0
-10 5 -10 10 0 6 -15 25 -32 42 -18 18 -33 35 -33 38 1 7 -37 50 -44 50 -3 -1
-11 -6 -17 -13z m86 -141 c9 -12 8 -15 -9 -13 -11 1 -23 7 -25 14 -7 18 19 16
34 -1z"/>
</g>
</svg>
